<svg width="210" height="60" viewBox="0 0 210 60" fill="none" xmlns="http://www.w3.org/2000/svg">
<path d="M47.3945 40.9654V20.5618H53.2451V40.9654H47.3945Z" fill="#007074"/>
<path d="M47.3945 18.0068V12.6868H53.2451V18.0068H47.3945Z" fill="#E76F51"/>
<path d="M71.3063 17.626H72.2961V23.6754H71.3063C69.2231 23.6754 67.5987 24.2475 66.4329 25.3918C65.2672 26.5361 64.6829 28.0905 64.6801 30.0552V40.9654H58.8281V18.0054H64.6801V20.9748C66.4432 18.7423 68.6519 17.626 71.3063 17.626Z" fill="#007074"/>
<path d="M83.646 41.5156C79.922 41.5156 76.6959 40.3424 73.9678 37.996L76.8056 34.125C78.7553 35.8283 80.9916 36.68 83.5144 36.68C84.7165 36.68 85.6965 36.4896 86.4544 36.1088C87.2122 35.728 87.5898 35.1997 87.587 34.524C87.5925 34.1748 87.48 33.8339 87.2678 33.5566C86.993 33.2324 86.6411 32.9825 86.2444 32.83C85.8037 32.6357 85.3521 32.4669 84.892 32.3246C84.4589 32.193 83.8522 32.039 83.072 31.8626C82.5446 31.745 82.1246 31.6517 81.812 31.5826C81.504 31.5098 81.0826 31.395 80.552 31.241C80.0214 31.087 79.5832 30.9442 79.2542 30.8126C78.9252 30.681 78.5318 30.5004 78.0768 30.2736C77.6821 30.0846 77.3097 29.8522 76.9666 29.5806C76.6466 29.3151 76.3449 29.0284 76.0636 28.7224C75.7609 28.4033 75.5088 28.0397 75.316 27.6444C75.1186 27.2223 74.9674 26.7802 74.8652 26.3256C74.7445 25.799 74.6853 25.2601 74.6888 24.7198C74.6888 23.1509 75.1214 21.8087 75.9866 20.6934C76.8586 19.574 78.0292 18.7237 79.3634 18.2406C80.7494 17.7217 82.315 17.4613 84.0604 17.4594C87.4484 17.4594 90.4178 18.4641 92.9686 20.4736L90.1322 24.3936C88.2543 22.9852 86.2742 22.281 84.192 22.281C83.1364 22.281 82.2712 22.4499 81.5964 22.7878C80.9216 23.1257 80.5842 23.6171 80.5842 24.262C80.5771 24.6062 80.6855 24.9429 80.8922 25.2182C81.0975 25.4898 81.4349 25.7231 81.9044 25.9182C82.3484 26.1074 82.8038 26.2687 83.268 26.4012C83.7076 26.5272 84.3142 26.6705 85.088 26.831C85.7628 26.9775 86.3055 27.1021 86.7162 27.2048C87.1268 27.3075 87.6621 27.4689 88.322 27.6892C88.8776 27.8659 89.4182 28.0864 89.939 28.3486C90.4172 28.6074 90.8733 28.9052 91.3026 29.239C91.7528 29.5706 92.1433 29.9763 92.4576 30.4388C93.1259 31.5065 93.477 32.7422 93.4698 34.0018C93.4698 35.5707 93.0297 36.9348 92.1496 38.094C91.2444 39.271 90.024 40.1671 88.63 40.6784C87.1702 41.2356 85.5089 41.5147 83.646 41.5156Z" fill="#007074"/>
<path d="M108.351 41.5156C104.845 41.5156 101.908 40.3643 99.5405 38.0618C97.1726 35.7593 95.9882 32.8995 95.9873 29.4826C95.9873 26.0666 97.1717 23.2069 99.5405 20.9034C101.909 18.5999 104.846 17.4487 108.351 17.4496C110.638 17.4496 112.709 17.9629 114.564 18.9896C116.367 19.9677 117.876 21.4113 118.932 23.17L113.828 26.2276C113.3 25.2885 112.528 24.5093 111.595 23.9722C110.609 23.4039 109.488 23.1135 108.351 23.1322C106.547 23.1322 105.043 23.7389 103.841 24.9522C102.639 26.1655 102.038 27.6761 102.037 29.484C102.037 31.2881 102.638 32.7987 103.841 34.0158C105.044 35.2329 106.548 35.8395 108.351 35.8358C109.483 35.8525 110.599 35.5638 111.581 35C112.522 34.4609 113.297 33.6734 113.821 32.7236L118.925 35.7812C117.874 37.5494 116.365 39.0006 114.557 39.9812C112.707 41.0032 110.638 41.5147 108.351 41.5156Z" fill="#007074"/>
<path d="M139.608 17.9998H145.46V40.9598H139.608V38.22C137.599 40.4189 135.106 41.5189 132.129 41.5198C128.932 41.5198 126.263 40.3685 124.123 38.066C121.983 35.7635 120.912 32.9037 120.911 29.4868C120.911 26.0708 121.982 23.2111 124.123 20.9076C126.264 18.6041 128.933 17.4529 132.129 17.4538C135.122 17.4538 137.615 18.5467 139.608 20.7326V17.9998ZM133.251 35.84C135.07 35.84 136.584 35.2333 137.794 34.02C139.003 32.8067 139.61 31.2961 139.614 29.4882C139.614 27.685 139.007 26.1744 137.794 24.9564C136.58 23.7384 135.066 23.1317 133.251 23.1364C131.448 23.1364 129.944 23.7431 128.741 24.9564C127.538 26.1697 126.937 27.6785 126.938 29.4826C126.938 31.2867 127.539 32.7973 128.741 34.0144C129.943 35.2315 131.447 35.84 133.251 35.84Z" fill="#007074"/>
<path d="M164.36 17.4496C166.373 17.4264 168.351 17.9719 170.068 19.0232C171.779 20.0745 173.168 21.5758 174.083 23.3632C175.05 25.2037 175.534 27.2459 175.535 29.4896C175.536 31.7333 175.052 33.7755 174.083 35.616C173.168 37.4035 171.779 38.9049 170.068 39.956C168.35 41.0018 166.371 41.5423 164.36 41.5156C161.339 41.5156 158.846 40.4157 156.881 38.2158V49.5222H151.029V17.9998H156.881V20.7284C158.829 18.5425 161.322 17.4496 164.36 17.4496ZM163.19 35.84C165.008 35.84 166.515 35.2333 167.71 34.02C168.906 32.8067 169.504 31.2923 169.504 29.477C169.504 27.6579 168.906 26.1441 167.71 24.9354C166.515 23.7267 165.008 23.1201 163.19 23.1154C161.386 23.1154 159.883 23.7221 158.68 24.9354C157.477 26.1487 156.876 27.6593 156.877 29.4672C156.877 31.2713 157.478 32.7819 158.68 33.999C159.882 35.2161 161.386 35.8297 163.19 35.84Z" fill="#007074"/>
<path d="M202.72 29.5274C202.723 30.2188 202.679 30.9097 202.589 31.5952H184.792C185.158 32.9815 185.989 34.2002 187.145 35.0476C188.305 35.8988 189.713 36.3244 191.369 36.3244C192.639 36.3389 193.895 36.0641 195.043 35.5208C196.157 34.9869 197.036 34.3089 197.68 33.4866L201.6 36.918C200.372 38.3779 198.826 39.5369 197.08 40.306C195.228 41.1233 193.224 41.5357 191.2 41.5156C188.795 41.5156 186.617 40.9878 184.666 39.9322C182.765 38.9255 181.179 37.4123 180.085 35.56C179.013 33.6981 178.445 31.5893 178.435 29.441C178.425 27.2927 178.974 25.1788 180.029 23.3072C181.076 21.4985 182.597 20.0111 184.429 19.0064C186.331 17.9567 188.472 17.4184 190.644 17.444C194.089 17.444 196.963 18.5915 199.267 20.8866C201.57 23.1817 202.721 26.0619 202.72 29.5274ZM194.329 23.863C193.268 23.0277 191.956 22.5735 190.606 22.5735C189.255 22.5735 187.944 23.0277 186.882 23.863C185.827 24.7198 185.115 25.8673 184.749 27.3056H196.474C196.107 25.8683 195.392 24.7207 194.329 23.863Z" fill="#007074"/>
<path d="M26.5522 9.7062L16.9006 40.9962H9.7998L19.4486 9.7062H26.5522Z" fill="#E76F51"/>
<path d="M27.041 9.70619L36.6926 40.9962H43.7934L34.1446 9.70619H27.041Z" fill="#007074"/>
</svg>
