<svg width="188" height="54" viewBox="0 0 188 54" fill="none" xmlns="http://www.w3.org/2000/svg">
<path d="M42.4292 36.6738V18.4077H47.6669V36.6738H42.4292Z" fill="#F1FAEE"/>
<path d="M42.4292 16.1204V11.3577H47.6669V16.1204H42.4292Z" fill="#023C40"/>
<path d="M63.836 15.7795H64.7221V21.1951H63.836C61.971 21.1951 60.5168 21.7073 59.4731 22.7317C58.4295 23.7561 57.9065 25.1477 57.904 26.9066V36.6738H52.665V16.1191H57.904V18.7774C59.4823 16.7788 61.4597 15.7795 63.836 15.7795Z" fill="#F1FAEE"/>
<path d="M74.883 37.1663C71.5492 37.1663 68.6611 36.1161 66.2188 34.0155L68.7593 30.55C70.5047 32.0749 72.5067 32.8373 74.7652 32.8373C75.8414 32.8373 76.7188 32.6669 77.3972 32.326C78.0757 31.9851 78.4137 31.5121 78.4112 30.9072C78.4161 30.5946 78.3154 30.2894 78.1254 30.0411C77.8794 29.7509 77.5644 29.5272 77.2092 29.3907C76.8147 29.2167 76.4104 29.0656 75.9985 28.9382C75.6108 28.8204 75.0677 28.6825 74.3692 28.5246C73.8971 28.4193 73.5211 28.3358 73.2412 28.2739C72.9654 28.2088 72.5882 28.106 72.1132 27.9681C71.6382 27.8303 71.2459 27.7024 70.9513 27.5846C70.6568 27.4668 70.3046 27.3051 69.8973 27.1021C69.5439 26.9329 69.2106 26.7248 68.9034 26.4817C68.617 26.244 68.3469 25.9874 68.095 25.7134C67.824 25.4277 67.5983 25.1022 67.4257 24.7483C67.249 24.3705 67.1137 23.9746 67.0221 23.5677C66.9141 23.0962 66.8611 22.6138 66.8642 22.1301C66.8642 20.7255 67.2515 19.524 68.0261 18.5255C68.8067 17.5234 69.8547 16.7622 71.0491 16.3297C72.2899 15.8651 73.6915 15.632 75.254 15.6303C78.2871 15.6303 80.9454 16.5298 83.229 18.3287L80.6897 21.8381C79.0086 20.5772 77.236 19.9468 75.3718 19.9468C74.4268 19.9468 73.6523 20.098 73.0482 20.4005C72.4441 20.703 72.142 21.1429 72.142 21.7203C72.1356 22.0284 72.2327 22.3298 72.4177 22.5763C72.6016 22.8194 72.9036 23.0283 73.3239 23.203C73.7214 23.3723 74.1291 23.5168 74.5446 23.6354C74.9382 23.7482 75.4813 23.8764 76.174 24.0201C76.7781 24.1513 77.264 24.2629 77.6316 24.3548C77.9992 24.4467 78.4784 24.5912 79.0692 24.7884C79.5666 24.9466 80.0506 25.144 80.5168 25.3787C80.9449 25.6104 81.3532 25.877 81.7375 26.1759C82.1406 26.4727 82.4902 26.8359 82.7715 27.25C83.3699 28.2058 83.6842 29.3121 83.6777 30.4397C83.6777 31.8443 83.2837 33.0654 82.4958 34.1032C81.6855 35.1569 80.5929 35.9592 79.3449 36.4169C78.0381 36.9157 76.5508 37.1655 74.883 37.1663Z" fill="#F1FAEE"/>
<path d="M96.9993 37.1663C93.861 37.1663 91.2319 36.1357 89.1121 34.0744C86.9923 32.0131 85.932 29.4529 85.9312 26.3939C85.9312 23.3358 86.9915 20.7757 89.1121 18.7135C91.2328 16.6514 93.8618 15.6207 96.9993 15.6215C99.0473 15.6215 100.901 16.0811 102.562 17.0002C104.176 17.8759 105.526 19.1682 106.472 20.7427L101.902 23.4799C101.43 22.6392 100.739 21.9416 99.9033 21.4608C99.0212 20.952 98.0175 20.6921 96.9993 20.7088C95.3842 20.7088 94.0385 21.2519 92.9623 22.3382C91.8862 23.4244 91.3476 24.7767 91.3468 26.3952C91.3468 28.0103 91.8853 29.3627 92.9623 30.4522C94.0394 31.5418 95.385 32.0849 96.9993 32.0816C98.0129 32.0965 99.0117 31.838 99.8908 31.3333C100.733 30.8507 101.427 30.1457 101.896 29.2954L106.466 32.0327C105.525 33.6157 104.174 34.9149 102.555 35.7927C100.899 36.7076 99.0473 37.1655 96.9993 37.1663Z" fill="#F1FAEE"/>
<path d="M124.982 16.1141H130.221V36.6688H124.982V34.216C123.183 36.1846 120.952 37.1693 118.287 37.1701C115.424 37.1701 113.035 36.1394 111.119 34.0781C109.203 32.0168 108.245 29.4567 108.244 26.3977C108.244 23.3396 109.203 20.7794 111.119 18.7173C113.036 16.6551 115.425 15.6245 118.287 15.6253C120.966 15.6253 123.198 16.6037 124.982 18.5606V16.1141ZM119.291 32.0853C120.92 32.0853 122.275 31.5422 123.358 30.456C124.441 29.3698 124.984 28.0174 124.987 26.399C124.987 24.7847 124.444 23.4323 123.358 22.3419C122.272 21.2515 120.916 20.7084 119.291 20.7126C117.677 20.7126 116.331 21.2557 115.254 22.3419C114.177 23.4281 113.639 24.7788 113.64 26.3939C113.64 28.0091 114.178 29.3614 115.254 30.451C116.33 31.5406 117.676 32.0853 119.291 32.0853Z" fill="#F1FAEE"/>
<path d="M147.141 15.6215C148.943 15.6008 150.714 16.0891 152.251 17.0303C153.783 17.9714 155.026 19.3155 155.846 20.9156C156.711 22.5633 157.145 24.3915 157.145 26.4002C157.146 28.4089 156.713 30.2371 155.846 31.8848C155.026 33.4851 153.783 34.8292 152.251 35.7701C150.713 36.7064 148.942 37.1903 147.141 37.1663C144.437 37.1663 142.205 36.1816 140.446 34.2122V44.3342H135.207V16.1141H140.446V18.5569C142.19 16.6 144.422 15.6215 147.141 15.6215ZM146.093 32.0853C147.721 32.0853 149.07 31.5422 150.141 30.456C151.211 29.3698 151.746 28.0141 151.746 26.3889C151.746 24.7604 151.211 23.4052 150.141 22.3231C149.07 21.2411 147.721 20.698 146.093 20.6938C144.479 20.6938 143.134 21.2369 142.057 22.3231C140.979 23.4093 140.441 24.7617 140.442 26.3802C140.442 27.9953 140.98 29.3476 142.057 30.4372C143.133 31.5268 144.478 32.0761 146.093 32.0853Z" fill="#F1FAEE"/>
<path d="M181.483 26.4341C181.485 27.0531 181.446 27.6715 181.365 28.2852H165.432C165.76 29.5263 166.504 30.6174 167.539 31.3759C168.577 32.138 169.837 32.519 171.321 32.519C172.457 32.532 173.582 32.286 174.609 31.7996C175.607 31.3216 176.394 30.7146 176.971 29.9785L180.48 33.0504C179.38 34.3574 177.996 35.395 176.433 36.0835C174.775 36.8152 172.981 37.1844 171.169 37.1664C169.016 37.1664 167.066 36.6938 165.32 35.7488C163.618 34.8476 162.198 33.4929 161.219 31.8347C160.259 30.1679 159.75 28.28 159.741 26.3567C159.732 24.4334 160.224 22.541 161.169 20.8655C162.105 19.2463 163.468 17.9147 165.108 17.0153C166.81 16.0755 168.727 15.5936 170.671 15.6165C173.755 15.6165 176.328 16.6439 178.391 18.6985C180.453 20.7531 181.483 23.3316 181.483 26.4341ZM173.97 21.3631C173.02 20.6152 171.846 20.2086 170.637 20.2086C169.428 20.2086 168.254 20.6152 167.304 21.3631C166.359 22.1301 165.722 23.1574 165.394 24.445H175.89C175.562 23.1583 174.922 22.1309 173.97 21.3631Z" fill="#F1FAEE"/>
<path d="M23.7707 8.68936L15.1302 36.7014H8.77332L17.4113 8.68936H23.7707Z" fill="#023C40"/>
<path d="M24.2081 8.68936L32.8486 36.7014H39.2055L30.5675 8.68936H24.2081Z" fill="#F1FAEE"/>
</svg>
